<mxfile host="www.draw.io" modified="2023-08-11T21:30:07.179Z" agent="Mozilla/5.0 (Windows NT 10.0; Win64; x64) AppleWebKit/537.36 (KHTML, like Gecko) Chrome/115.0.0.0 Safari/537.36" etag="p088Pb34VVST26QLyhlU" version="21.6.8" type="device">
  <diagram name="Page-1" id="80vOgqlpT0wxCzmjKzRD">
    <mxGraphModel dx="1120" dy="446" grid="1" gridSize="10" guides="1" tooltips="1" connect="1" arrows="1" fold="1" page="1" pageScale="1" pageWidth="1169" pageHeight="827" math="0" shadow="0">
      <root>
        <mxCell id="0" />
        <mxCell id="1" parent="0" />
        <mxCell id="QI8b02ntNRMKq8cDvT6d-1" value="" style="whiteSpace=wrap;html=1;aspect=fixed;" vertex="1" parent="1">
          <mxGeometry x="390" y="80" width="310" height="310" as="geometry" />
        </mxCell>
        <mxCell id="QI8b02ntNRMKq8cDvT6d-2" value="header" style="rounded=0;whiteSpace=wrap;html=1;" vertex="1" parent="1">
          <mxGeometry x="400" y="90" width="290" height="60" as="geometry" />
        </mxCell>
        <mxCell id="QI8b02ntNRMKq8cDvT6d-3" value="footer" style="rounded=0;whiteSpace=wrap;html=1;" vertex="1" parent="1">
          <mxGeometry x="400" y="320" width="290" height="60" as="geometry" />
        </mxCell>
        <mxCell id="QI8b02ntNRMKq8cDvT6d-4" value="main" style="rounded=0;whiteSpace=wrap;html=1;" vertex="1" parent="1">
          <mxGeometry x="400" y="160" width="210" height="150" as="geometry" />
        </mxCell>
        <mxCell id="QI8b02ntNRMKq8cDvT6d-5" value="aside" style="rounded=0;whiteSpace=wrap;html=1;" vertex="1" parent="1">
          <mxGeometry x="620" y="160" width="70" height="150" as="geometry" />
        </mxCell>
        <mxCell id="QI8b02ntNRMKq8cDvT6d-6" value="DIV" style="rounded=0;whiteSpace=wrap;html=1;" vertex="1" parent="1">
          <mxGeometry x="30" y="80" width="200" height="60" as="geometry" />
        </mxCell>
        <mxCell id="QI8b02ntNRMKq8cDvT6d-9" value="DIV" style="rounded=0;whiteSpace=wrap;html=1;" vertex="1" parent="1">
          <mxGeometry x="410" y="330" width="30" height="40" as="geometry" />
        </mxCell>
        <mxCell id="QI8b02ntNRMKq8cDvT6d-10" value="DIV" style="rounded=0;whiteSpace=wrap;html=1;" vertex="1" parent="1">
          <mxGeometry x="30" y="160" width="130" height="120" as="geometry" />
        </mxCell>
        <mxCell id="QI8b02ntNRMKq8cDvT6d-11" value="DIV" style="rounded=0;whiteSpace=wrap;html=1;" vertex="1" parent="1">
          <mxGeometry x="179" y="160" width="51" height="120" as="geometry" />
        </mxCell>
        <mxCell id="QI8b02ntNRMKq8cDvT6d-12" value="DIV" style="rounded=0;whiteSpace=wrap;html=1;" vertex="1" parent="1">
          <mxGeometry x="649" y="330" width="30" height="40" as="geometry" />
        </mxCell>
        <mxCell id="QI8b02ntNRMKq8cDvT6d-13" value="DIV" style="rounded=0;whiteSpace=wrap;html=1;" vertex="1" parent="1">
          <mxGeometry x="450" y="330" width="70" height="40" as="geometry" />
        </mxCell>
      </root>
    </mxGraphModel>
  </diagram>
</mxfile>
